<?xml version="1.0" encoding="utf-8"?>
<!-- Generator: Adobe Illustrator 21.0.0, SVG Export Plug-In . SVG Version: 6.00 Build 0)  -->
<svg version="1.1" id="Layer_1" xmlns="http://www.w3.org/2000/svg" xmlns:xlink="http://www.w3.org/1999/xlink" x="0px" y="0px"
	 width="857px" height="200px" viewBox="0 0 857 200" style="enable-background:new 0 0 857 200;" xml:space="preserve">
<style type="text/css">
	.st0{fill:#737373;}
	.st1{fill:#8CB74F;}
	.st2{fill:#FFFFFF;}
</style>
<polygon class="st0" points="217.6,36.1 217.6,51 253.9,51 253.9,61.5 217.6,61.5 217.6,85.4 203.9,85.4 203.9,25.6 256.4,25.6 
	256.4,36.1 "/>
<rect x="266.7" y="25.6" class="st0" width="13.8" height="59.8"/>
<polygon class="st0" points="356.5,25.6 356.5,85.4 341,85.4 307.9,42.6 307.9,85.4 294.1,85.4 294.1,25.6 309.5,25.6 342.6,68.4 
	342.6,25.6 "/>
<path class="st0" d="M433.4,55.5c0,23.8-17.4,29.9-36.1,29.9h-27.2V25.6h27.2C415.9,25.6,433.4,31.6,433.4,55.5 M419.3,55.5
	c0-15.4-9.1-19.3-23.3-19.3h-12v38.6h12C410.2,74.8,419.3,70.9,419.3,55.5"/>
<path class="st0" d="M487.6,73.7h-32.8l-5.1,11.7h-14.6l27.7-59.8h16.9l27.6,59.8h-14.6L487.6,73.7z M483,63.1L471.2,36l-11.8,27.2
	H483z"/>
<path class="st0" d="M578.2,67.8c0,13.5-8.5,17.6-27.3,17.6h-36V25.6h37.8c14.4,0,23.2,3.3,23.2,15.4c0,7-3.6,10.8-10.1,12.7v0.4
	C573.7,56,578.2,60.1,578.2,67.8 M528.7,36.1v14.1h24.7c6,0,9.3-2,9.3-7.1c0-5.1-3.8-7-9.3-7H528.7z M564.2,66.7
	c0-5-3.7-6.7-10.4-6.7h-25v14.8h25C561.7,74.8,564.2,71.8,564.2,66.7"/>
<rect x="588.4" y="25.6" class="st0" width="13.8" height="59.8"/>
<polygon class="st0" points="668.4,85.4 615.9,85.4 615.9,25.6 629.7,25.6 629.7,74.8 668.4,74.8 "/>
<rect x="679.5" y="25.6" class="st0" width="13.8" height="59.8"/>
<polygon class="st0" points="762.5,36.1 739.9,36.1 739.9,85.4 726.2,85.4 726.2,36.1 703.5,36.1 703.5,25.6 762.5,25.6 "/>
<polygon class="st0" points="837.7,25.6 810.1,64.2 810.1,85.4 796.2,85.4 796.2,64.2 768.5,25.6 784.5,25.6 803.1,52.6 821.8,25.6 
	"/>
<path class="st0" d="M263.1,154.4c0,13-10.7,19.9-32,19.9c-20.7,0-31.5-7.8-31.5-19.9H214c0.3,6.2,7.5,9.4,18.4,9.4
	c11.4,0,16.1-3,16.1-7.5c0-6.2-9.2-5.6-25.5-8.3c-16.3-2.7-21.4-7.7-21.4-17.1c0-9.8,6.7-18.9,28.6-18.9c21.1,0,29.3,8,29.6,18.6
	h-13.3c-0.5-4.3-5.5-8.1-16.5-8.1c-12.3,0-15.2,3.3-15.2,7.4c0,5.6,9.9,6,20.4,7.4C251.6,139.7,263.1,141.1,263.1,154.4"/>
<path class="st0" d="M323.1,149.4h14.3c-2.8,17.8-17.9,24.9-33.5,24.9c-17.3,0-34-8.7-34-31.2s16.7-31.1,34-31.1
	c15.5,0,30.7,7.2,33.5,24.9h-14.3c-1.8-7.8-6.8-14.5-19.2-14.5c-14.4,0-19.9,9.1-19.9,20.7c0,11.6,5.6,20.8,19.9,20.8
	C316.3,163.9,321.3,157.1,323.1,149.4"/>
<rect x="347.7" y="113.2" class="st0" width="13.8" height="59.8"/>
<polygon class="st0" points="428.4,173 375.1,173 375.1,113.2 427.5,113.2 427.5,123.8 388.8,123.8 388.8,137.1 425.2,137.1 
	425.2,147.6 388.8,147.6 388.8,162.4 428.4,162.4 "/>
<polygon class="st0" points="501.9,113.2 501.9,173 486.4,173 453.3,130.3 453.3,173 439.5,173 439.5,113.2 454.9,113.2 488,156 
	488,113.2 "/>
<path class="st0" d="M565.4,149.4h14.3c-2.8,17.8-17.9,24.9-33.5,24.9c-17.3,0-34-8.7-34-31.2s16.7-31.1,34-31.1
	c15.5,0,30.7,7.2,33.5,24.9h-14.3c-1.8-7.8-6.8-14.5-19.2-14.5c-14.4,0-19.9,9.1-19.9,20.7c0,11.6,5.6,20.8,19.9,20.8
	C558.5,163.9,563.6,157.1,565.4,149.4"/>
<polygon class="st0" points="643.2,173 589.9,173 589.9,113.2 642.3,113.2 642.3,123.8 603.6,123.8 603.6,137.1 639.9,137.1 
	639.9,147.6 603.6,147.6 603.6,162.4 643.2,162.4 "/>
<path class="st0" d="M713.5,154.4c0,13-10.7,19.9-32,19.9c-20.7,0-31.5-7.8-31.5-19.9h14.4c0.3,6.2,7.5,9.4,18.4,9.4
	c11.4,0,16.1-3,16.1-7.5c0-6.2-9.2-5.6-25.5-8.3c-16.3-2.7-21.4-7.7-21.4-17.1c0-9.8,6.7-18.9,28.6-18.9c21.1,0,29.3,8,29.6,18.6
	h-13.3c-0.5-4.3-5.5-8.1-16.5-8.1c-12.3,0-15.2,3.3-15.2,7.4c0,5.6,9.9,6,20.4,7.4C702.1,139.7,713.5,141.1,713.5,154.4"/>
<rect x="19.3" y="25.4" class="st1" width="149.1" height="149.1"/>
<rect x="103.9" y="81.2" class="st2" width="15.5" height="15.5"/>
<path class="st2" d="M115.2,40.2l-0.2,0c-3.5,0.1-7,0.7-10.4,1.7c-16.9,5-28.7,21-28.7,38.8l0,2.2c0,10.7,0,39,0,49.6v0.8
	c0,0,0,1.1-0.1,2.1c-1.2,6.3-6.7,11.2-13.4,11.2h-7.1v0h0v14.2h7.3v0c15.3-0.1,27.7-12.6,27.7-27.9c0-0.1,0-0.3,0-0.4h0
	c0-10.7,0-39,0-49.6l0-2.2c0-11.4,7.6-21.7,18.4-24.9c2.3-0.7,4.4-1,6.7-1.1h17.4V40.2H115.2z"/>
</svg>
