<?xml version="1.0" encoding="utf-8"?>
<!-- Generator: Adobe Illustrator 21.0.0, SVG Export Plug-In . SVG Version: 6.00 Build 0)  -->
<svg version="1.1" id="Layer_1" xmlns="http://www.w3.org/2000/svg" xmlns:xlink="http://www.w3.org/1999/xlink" x="0px" y="0px"
	 width="300px" height="300px" viewBox="0 0 300 300" style="enable-background:new 0 0 300 300;" xml:space="preserve">
<style type="text/css">
	.st0{fill:#7EB12D;}
	.st1{fill:#FFFFFF;}
</style>
<rect x="20.5" y="20.5" class="st0" width="259" height="259"/>
<rect x="167.6" y="117.3" class="st1" width="26.9" height="26.9"/>
<path class="st1" d="M187.2,46.1l-0.3,0c-6,0.2-12.1,1.1-18.1,2.9c-29.3,8.8-49.8,36.5-49.8,67.5l0,3.9c0,18.5,0,67.7,0,86.2v1.5
	c0,0,0,2-0.3,3.6c-2,11-11.6,19.4-23.3,19.4H83.1v0h0v24.7h12.8v0c26.5-0.2,48-21.8,48-48.4c0-0.2,0-0.5,0-0.7h0
	c0-18.6,0-67.7,0-86.2l0-3.9c0-19.9,13.1-37.7,32-43.3c3.9-1.2,7.7-1.8,11.6-1.9h30.2V46.1H187.2z"/>
</svg>
